<?xml version="1.0" encoding="utf-8"?>
<!-- Generator: Adobe Illustrator 19.2.1, SVG Export Plug-In . SVG Version: 6.00 Build 0)  -->
<svg version="1.1" id="Layer_1" xmlns="http://www.w3.org/2000/svg" xmlns:xlink="http://www.w3.org/1999/xlink" x="0px" y="0px"
	 viewBox="0 0 24 24" style="enable-background:new 0 0 24 24;" xml:space="preserve">
<style type="text/css">
	.st0{fill:#414042;}
</style>
<path class="st0" d="M12,0C5.4,0,0,5.4,0,12c0,6.6,5.4,12,12,12c6.6,0,12-5.4,12-12C24,5.4,18.6,0,12,0z M19.6,5.5
	c1.4,1.6,2.2,3.6,2.4,5.8c-2.2-0.1-4.7-0.1-6.8,0.1c-0.3-0.7-0.5-1.3-0.8-1.9C16.7,8.4,18.6,7.1,19.6,5.5z M12,2
	c2.4,0,4.6,0.9,6.4,2.3c-1.1,1.4-2.8,2.6-4.9,3.5c-1.2-2.1-2.5-4-3.9-5.5C10.3,2.1,11.1,2,12,2z M7.5,3.1c1.4,1.4,2.8,3.3,4,5.4
	C9.2,9.2,6.6,9.6,3.9,9.6c-0.5,0-1,0-1.5,0C3,6.7,4.9,4.4,7.5,3.1z M2,11.5c0.6,0,1.1,0,1.7,0c3.1,0,6.1-0.5,8.6-1.3
	c0.2,0.5,0.5,1,0.7,1.5c-0.3,0.1-0.6,0.2-0.9,0.3c-3.4,1.4-6.2,3.8-7.6,6.6C2.9,16.8,2,14.5,2,12C2,11.8,2,11.7,2,11.5z M12,22
	c-2.3,0-4.4-0.8-6.1-2.1c1.3-2.6,3.7-4.8,6.7-6.2c0.3-0.1,0.7-0.2,1.1-0.3c0.4,1,0.7,2,1,3.1c0.4,1.7,0.7,3.3,0.9,4.9
	C14.4,21.8,13.2,22,12,22z M17.4,20.4c-0.2-1.6-0.5-3.3-0.9-4.9c-0.2-0.8-0.5-1.6-0.7-2.4c2-0.2,4.3-0.1,6.2,0
	C21.6,16.2,19.9,18.8,17.4,20.4z"/>
</svg>
