<?xml version="1.0" encoding="utf-8"?>
<!-- Generator: Adobe Illustrator 19.2.1, SVG Export Plug-In . SVG Version: 6.00 Build 0)  -->
<svg version="1.1" id="Layer_1" xmlns="http://www.w3.org/2000/svg" xmlns:xlink="http://www.w3.org/1999/xlink" x="0px" y="0px"
	 viewBox="0 0 24 24" style="enable-background:new 0 0 24 24;" xml:space="preserve">
<style type="text/css">
	.st0{fill:#414042;}
</style>
<path class="st0" d="M22,0H2C0.9,0,0,0.9,0,2v20c0,1.1,0.9,2,2,2h20c1.1,0,2-0.9,2-2V2C24,0.9,23.1,0,22,0z M16.6,12
	c0,2.6-2.1,4.6-4.6,4.6c-2.6,0-4.6-2.1-4.6-4.6c0-0.4,0.1-0.9,0.2-1.3C8.1,8.8,9.9,7.4,12,7.4c2.1,0,3.9,1.4,4.4,3.4
	C16.5,11.1,16.6,11.6,16.6,12z M21.2,20.2c0,0.6-0.4,1-1,1H3.8c-0.6,0-1-0.4-1-1v-9.5h1.7c-0.1,0.4-0.1,0.8-0.1,1.3
	c0,4.2,3.4,7.6,7.6,7.6c4.2,0,7.6-3.4,7.6-7.6c0-0.4,0-0.9-0.1-1.3h1.7V20.2z M21.2,6.5c0,0.6-0.4,1-1,1h-2.1h-0.6c-0.6,0-1-0.4-1-1
	V5.9V3.8c0-0.6,0.4-1,1-1h2.7c0.6,0,1,0.4,1,1V6.5z"/>
</svg>
